<svg xmlns="http://www.w3.org/2000/svg" viewBox="0 0 153.95 30.66"><title>collaboard-logo</title><g id="Layer_2" data-name="Layer 2"><g id="Layer_1-2" data-name="Layer 1"><path d="M30.66,7.17A7.17,7.17,0,1,1,23.5,0a7.17,7.17,0,0,1,7.16,7.17" fill="#1d1d1b"/><path d="M14.32,23.5a7.16,7.16,0,1,1-7.16-7.16,7.16,7.16,0,0,1,7.16,7.16" fill="#1d1d1b"/><path d="M28.63,18.07a6.78,6.78,0,0,0-4.42-1.56,1.79,1.79,0,0,1-.39,0c-.21,0-.42,0-.64,0a9,9,0,0,1-9-9,8.68,8.68,0,0,1,.06-.9,6.89,6.89,0,0,0-1.37-4.29A7.47,7.47,0,1,0,2.3,12.86,6.87,6.87,0,0,0,6.59,14.3h.09a7.14,7.14,0,0,1,.8,0,8.91,8.91,0,0,1,8.91,8.91c0,.15,0,.3,0,.44a3.21,3.21,0,0,1,0,.36,6.78,6.78,0,0,0,1.42,4.4,7.4,7.4,0,0,0,5.36,2.28,7.48,7.48,0,0,0,7.48-7.48,7.4,7.4,0,0,0-2-5.11" fill="#c7d306"/><path d="M50.25,28a4.36,4.36,0,0,1-2.16.57,3.35,3.35,0,0,1-1.3-.24,2.85,2.85,0,0,1-1-.69,3,3,0,0,1-.62-1.06A3.9,3.9,0,0,1,45,25.2a4.08,4.08,0,0,1,.11-.93,3.8,3.8,0,0,1,.3-.84,3.58,3.58,0,0,1,.49-.71,3.2,3.2,0,0,1,1.5-.91,3.87,3.87,0,0,1,1-.13,4.13,4.13,0,0,1,1.76.36v.68a3.69,3.69,0,0,0-1.84-.48,2.59,2.59,0,0,0-1.09.23,2.33,2.33,0,0,0-.84.61,2.83,2.83,0,0,0-.53.91,3.34,3.34,0,0,0-.19,1.15,3.79,3.79,0,0,0,.15,1.14,2.6,2.6,0,0,0,.49.9,2.35,2.35,0,0,0,.8.59,2.73,2.73,0,0,0,1.1.21,2.91,2.91,0,0,0,1.47-.35v-2H48.13v-.56h2.12Z" fill="#1d1d1b"/><path d="M54,24.3a.91.91,0,0,0-.54-.16.88.88,0,0,0-.41.09,1.11,1.11,0,0,0-.32.25,1.41,1.41,0,0,0-.23.35,1.77,1.77,0,0,0-.15.42,3.43,3.43,0,0,0-.09.44,3.1,3.1,0,0,0,0,.42v2.32h-.59V23.69h.59v1h0a1.75,1.75,0,0,1,.21-.46,1.42,1.42,0,0,1,.29-.35,1.31,1.31,0,0,1,.36-.21,1.16,1.16,0,0,1,.42-.08l.25,0a.65.65,0,0,1,.21.06Z" fill="#1d1d1b"/><path d="M55.06,26.17a2.67,2.67,0,0,0,.11.78,1.76,1.76,0,0,0,.32.59,1.32,1.32,0,0,0,.51.36,1.6,1.6,0,0,0,.67.13,2.4,2.4,0,0,0,1.51-.56v.58a2.7,2.7,0,0,1-1.64.49,2.21,2.21,0,0,1-.87-.17,1.76,1.76,0,0,1-.66-.48,2.24,2.24,0,0,1-.42-.78,3.41,3.41,0,0,1-.15-1.05,3.11,3.11,0,0,1,.16-1,2.49,2.49,0,0,1,.45-.78,2,2,0,0,1,.68-.52,1.93,1.93,0,0,1,.86-.19,1.86,1.86,0,0,1,.81.16,1.58,1.58,0,0,1,.59.46,2,2,0,0,1,.37.72,3.48,3.48,0,0,1,.12.95v.3Zm2.81-.52a1.83,1.83,0,0,0-.35-1.15,1.17,1.17,0,0,0-.94-.41,1.47,1.47,0,0,0-.56.11,1.25,1.25,0,0,0-.45.31,1.73,1.73,0,0,0-.32.49,2.93,2.93,0,0,0-.18.65Z" fill="#1d1d1b"/><path d="M62.37,28.43v-.84h0a1.71,1.71,0,0,1-.63.7,1.65,1.65,0,0,1-.9.25,1.72,1.72,0,0,1-.62-.1,1.29,1.29,0,0,1-.47-.27,1.17,1.17,0,0,1-.29-.43,1.42,1.42,0,0,1-.11-.55,1.36,1.36,0,0,1,.4-1,2.11,2.11,0,0,1,1.2-.49l1.44-.21c0-.91-.35-1.37-1.06-1.37a2.33,2.33,0,0,0-1.53.61v-.65a2,2,0,0,1,.33-.19,2.74,2.74,0,0,1,.4-.15,3.15,3.15,0,0,1,.42-.09,2.15,2.15,0,0,1,.43,0,1.56,1.56,0,0,1,1.2.44,1.92,1.92,0,0,1,.4,1.33v3.08Zm-1.22-2.3a4.84,4.84,0,0,0-.55.11,1.17,1.17,0,0,0-.37.19.77.77,0,0,0-.22.29,1.33,1.33,0,0,0-.07.43.78.78,0,0,0,.07.35.77.77,0,0,0,.19.28,1.08,1.08,0,0,0,.31.19,1.37,1.37,0,0,0,.42.06,1.4,1.4,0,0,0,.58-.12,1.45,1.45,0,0,0,.45-.33,1.44,1.44,0,0,0,.3-.51,1.93,1.93,0,0,0,.11-.65V26Z" fill="#1d1d1b"/><path d="M66.42,28.37a1.45,1.45,0,0,1-.66.15c-.77,0-1.15-.44-1.15-1.32v-3h-.83v-.52h.83V22.5l.59-.2v1.39h1.22v.52H65.2v2.9a1.13,1.13,0,0,0,.16.69.59.59,0,0,0,.53.22,1,1,0,0,0,.53-.17Z" fill="#1d1d1b"/><path d="M76,28.43V25.64a3.65,3.65,0,0,0-.07-.72,1.19,1.19,0,0,0-.2-.47.71.71,0,0,0-.35-.27,1.24,1.24,0,0,0-.5-.09,1,1,0,0,0-.49.13,1.26,1.26,0,0,0-.4.33,1.8,1.8,0,0,0-.28.51,2.08,2.08,0,0,0-.1.63v2.74H73V25.58c0-1-.38-1.49-1.14-1.49a1,1,0,0,0-.49.12,1.38,1.38,0,0,0-.4.33,1.53,1.53,0,0,0-.26.51,2.29,2.29,0,0,0-.09.66v2.72H70V23.69h.6v.77h0a1.59,1.59,0,0,1,1.46-.88,1.45,1.45,0,0,1,.47.08,1.39,1.39,0,0,1,.4.21,1.18,1.18,0,0,1,.3.33,1.42,1.42,0,0,1,.2.41,1.9,1.9,0,0,1,.65-.77,1.61,1.61,0,0,1,.9-.26q1.56,0,1.56,1.92v2.93Z" fill="#1d1d1b"/><path d="M78.25,22.49a.4.4,0,0,1-.29-.12.41.41,0,0,1,0-.6.4.4,0,0,1,.29-.12.47.47,0,0,1,.17,0,.42.42,0,0,1,.14.09.3.3,0,0,1,.09.13.47.47,0,0,1,0,.17.41.41,0,0,1,0,.16.34.34,0,0,1-.09.14.42.42,0,0,1-.14.09A.43.43,0,0,1,78.25,22.49ZM78,28.43V23.69h.59v4.74Z" fill="#1d1d1b"/><path d="M83.28,28.43V25.7c0-1.07-.39-1.61-1.17-1.61a1.2,1.2,0,0,0-.57.13,1.28,1.28,0,0,0-.46.34,1.44,1.44,0,0,0-.3.51,2,2,0,0,0-.11.65v2.71h-.59V23.69h.59v.82h0a1.71,1.71,0,0,1,1.59-.93,1.43,1.43,0,0,1,1.18.5,2.31,2.31,0,0,1,.41,1.46v2.89Z" fill="#1d1d1b"/><path d="M88.61,28.43V27.6h0a1.74,1.74,0,0,1-.68.69,1.92,1.92,0,0,1-1,.25,2,2,0,0,1-.81-.17,1.58,1.58,0,0,1-.62-.47,2.44,2.44,0,0,1-.4-.75,3.33,3.33,0,0,1-.14-1,3.17,3.17,0,0,1,.16-1.05,2.56,2.56,0,0,1,.43-.82,2,2,0,0,1,.69-.52,2,2,0,0,1,.89-.19,1.54,1.54,0,0,1,1.47.82h0v-3h.6v7Zm0-2.86a1.57,1.57,0,0,0-.1-.58,1.42,1.42,0,0,0-1.34-.9,1.58,1.58,0,0,0-.65.14,1.61,1.61,0,0,0-.5.4,2,2,0,0,0-.33.64,3,3,0,0,0,0,1.65,1.83,1.83,0,0,0,.3.61,1.4,1.4,0,0,0,.47.37,1.33,1.33,0,0,0,.61.13,1.54,1.54,0,0,0,.65-.13,1.45,1.45,0,0,0,.49-.36,1.72,1.72,0,0,0,.31-.53,2,2,0,0,0,.1-.65Z" fill="#1d1d1b"/><path d="M90.46,27.58a2.2,2.2,0,0,0,.3.19l.32.14a1.89,1.89,0,0,0,.34.09,1.73,1.73,0,0,0,.32,0c.7,0,1.05-.26,1.05-.79a.59.59,0,0,0-.07-.31.71.71,0,0,0-.22-.24,1.32,1.32,0,0,0-.33-.2,4.69,4.69,0,0,0-.44-.2,4.22,4.22,0,0,1-.56-.27,1.57,1.57,0,0,1-.39-.31,1,1,0,0,1-.23-.36,1.23,1.23,0,0,1-.07-.44,1.13,1.13,0,0,1,.13-.56,1.64,1.64,0,0,1,.37-.42,1.93,1.93,0,0,1,.54-.26,2.18,2.18,0,0,1,.63-.09,2.45,2.45,0,0,1,1.08.23v.63a2.1,2.1,0,0,0-1.15-.35,1.35,1.35,0,0,0-.41.06,1,1,0,0,0-.31.16.78.78,0,0,0-.2.24.64.64,0,0,0-.07.31,1,1,0,0,0,0,.31.69.69,0,0,0,.18.24,1.42,1.42,0,0,0,.3.2,4.09,4.09,0,0,0,.46.21,5.6,5.6,0,0,1,.59.27,2,2,0,0,1,.41.3,1,1,0,0,1,.24.36,1.06,1.06,0,0,1,.08.45,1.17,1.17,0,0,1-.13.57,1.15,1.15,0,0,1-.37.42,1.51,1.51,0,0,1-.54.26,2.5,2.5,0,0,1-.69.09,2.29,2.29,0,0,1-1.21-.3Z" fill="#1d1d1b"/><path d="M99.21,28.37a1.45,1.45,0,0,1-.66.15c-.77,0-1.15-.44-1.15-1.32v-3h-.83v-.52h.83V22.5l.59-.2v1.39h1.22v.52H98v2.9a1.13,1.13,0,0,0,.16.69.59.59,0,0,0,.53.22,1,1,0,0,0,.53-.17Z" fill="#1d1d1b"/><path d="M103.38,28.43V25.64a1.94,1.94,0,0,0-.28-1.17,1.06,1.06,0,0,0-.9-.38,1.25,1.25,0,0,0-.54.12,1.5,1.5,0,0,0-.46.33,2,2,0,0,0-.31.53,2.25,2.25,0,0,0-.11.71v2.65h-.59v-7h.59v3.09h0a1.75,1.75,0,0,1,1.59-.93,1.44,1.44,0,0,1,1.19.49,2.24,2.24,0,0,1,.4,1.43v2.93Z" fill="#1d1d1b"/><path d="M105.69,22.49a.4.4,0,0,1-.29-.12.41.41,0,0,1,0-.6.4.4,0,0,1,.29-.12.51.51,0,0,1,.17,0,.3.3,0,0,1,.13.09.45.45,0,0,1,.1.13.47.47,0,0,1,0,.17.41.41,0,0,1,0,.16.34.34,0,0,1-.09.14.42.42,0,0,1-.14.09A.47.47,0,0,1,105.69,22.49Zm-.29,5.94V23.69H106v4.74Z" fill="#1d1d1b"/><path d="M110.71,28.43V25.7c0-1.07-.38-1.61-1.16-1.61a1.2,1.2,0,0,0-.57.13,1.28,1.28,0,0,0-.46.34,1.44,1.44,0,0,0-.3.51,2,2,0,0,0-.11.65v2.71h-.59V23.69h.59v.82h0a1.71,1.71,0,0,1,1.58-.93,1.46,1.46,0,0,1,1.19.5,2.31,2.31,0,0,1,.41,1.46v2.89Z" fill="#1d1d1b"/><path d="M115.52,28.43l-2.18-2.31h0v2.31h-.59v-7h.59V25.9h0l2.07-2.21h.77L114,26l2.4,2.45Z" fill="#1d1d1b"/><path d="M121.81,28.37a1.45,1.45,0,0,1-.66.15c-.77,0-1.15-.44-1.15-1.32v-3h-.83v-.52H120V22.5l.59-.2v1.39h1.22v.52h-1.22v2.9a1.21,1.21,0,0,0,.16.69.6.6,0,0,0,.53.22.93.93,0,0,0,.53-.17Z" fill="#1d1d1b"/><path d="M124.66,28.54a2.35,2.35,0,0,1-.94-.18,2,2,0,0,1-.72-.49,2.12,2.12,0,0,1-.45-.77,2.87,2.87,0,0,1-.16-1,3.18,3.18,0,0,1,.17-1.06,2.3,2.3,0,0,1,.47-.79,2.11,2.11,0,0,1,.74-.5,2.76,2.76,0,0,1,1-.17,2.43,2.43,0,0,1,.92.17,1.82,1.82,0,0,1,.7.49,2.16,2.16,0,0,1,.44.77,3.41,3.41,0,0,1,.15,1,3,3,0,0,1-.16,1,2.49,2.49,0,0,1-.45.78,2,2,0,0,1-.73.51A2.42,2.42,0,0,1,124.66,28.54Zm0-4.45a1.71,1.71,0,0,0-.7.14,1.5,1.5,0,0,0-.54.39,1.75,1.75,0,0,0-.35.63,2.75,2.75,0,0,0-.12.84,2.49,2.49,0,0,0,.12.8,1.89,1.89,0,0,0,.34.61,1.5,1.5,0,0,0,.54.39,1.75,1.75,0,0,0,.7.14,1.71,1.71,0,0,0,.7-.13,1.35,1.35,0,0,0,.52-.39,1.61,1.61,0,0,0,.32-.61,3.05,3.05,0,0,0,.11-.84,2.19,2.19,0,0,0-.43-1.46A1.47,1.47,0,0,0,124.71,24.09Z" fill="#1d1d1b"/><path d="M132.07,28.06a2.79,2.79,0,0,1-.6,2,2.45,2.45,0,0,1-1.85.63,3.24,3.24,0,0,1-1.47-.34V29.7a3,3,0,0,0,1.47.43c1.24,0,1.86-.65,1.86-2V27.6h0a1.8,1.8,0,0,1-1.67.94,2.08,2.08,0,0,1-.8-.16,1.79,1.79,0,0,1-.62-.47,2.12,2.12,0,0,1-.41-.74,3.33,3.33,0,0,1-.14-1,3.53,3.53,0,0,1,.15-1.06,2.57,2.57,0,0,1,.44-.82,1.85,1.85,0,0,1,.68-.53,2,2,0,0,1,.9-.19,1.57,1.57,0,0,1,1.47.81h0v-.7h.59Zm-.59-2.51a1.51,1.51,0,0,0-.11-.56,1.41,1.41,0,0,0-.3-.46,1.36,1.36,0,0,0-.45-.32,1.32,1.32,0,0,0-.57-.12,1.47,1.47,0,0,0-.67.15,1.42,1.42,0,0,0-.51.4,1.83,1.83,0,0,0-.32.64,2.86,2.86,0,0,0-.12.85,2.74,2.74,0,0,0,.11.79,1.88,1.88,0,0,0,.3.6,1.43,1.43,0,0,0,.47.38,1.36,1.36,0,0,0,.61.13,1.47,1.47,0,0,0,.64-.13,1.42,1.42,0,0,0,.49-.35,1.4,1.4,0,0,0,.31-.53,1.75,1.75,0,0,0,.12-.65Z" fill="#1d1d1b"/><path d="M133.88,26.17A2.67,2.67,0,0,0,134,27a1.76,1.76,0,0,0,.32.59,1.32,1.32,0,0,0,.51.36,1.6,1.6,0,0,0,.67.13,2.42,2.42,0,0,0,1.51-.56v.58a2.7,2.7,0,0,1-1.64.49,2.21,2.21,0,0,1-.87-.17,1.76,1.76,0,0,1-.66-.48,2.24,2.24,0,0,1-.42-.78,3.41,3.41,0,0,1-.15-1.05,2.86,2.86,0,0,1,.16-1,2.49,2.49,0,0,1,.45-.78,2,2,0,0,1,.68-.52,1.9,1.9,0,0,1,.86-.19,1.86,1.86,0,0,1,.81.16,1.58,1.58,0,0,1,.59.46,1.87,1.87,0,0,1,.36.72,3.12,3.12,0,0,1,.13.95v.3Zm2.81-.52a1.83,1.83,0,0,0-.35-1.15,1.17,1.17,0,0,0-.94-.41,1.47,1.47,0,0,0-.56.11,1.25,1.25,0,0,0-.45.31,1.54,1.54,0,0,0-.32.49,2.14,2.14,0,0,0-.18.65Z" fill="#1d1d1b"/><path d="M140.49,28.37a1.45,1.45,0,0,1-.66.15c-.77,0-1.15-.44-1.15-1.32v-3h-.83v-.52h.83V22.5l.59-.2v1.39h1.22v.52h-1.22v2.9a1.21,1.21,0,0,0,.16.69A.6.6,0,0,0,140,28a.93.93,0,0,0,.53-.17Z" fill="#1d1d1b"/><path d="M144.67,28.43V25.64a1.93,1.93,0,0,0-.29-1.17,1.05,1.05,0,0,0-.89-.38,1.3,1.3,0,0,0-.55.12,1.45,1.45,0,0,0-.45.33,1.72,1.72,0,0,0-.31.53,2,2,0,0,0-.12.71v2.65h-.59v-7h.59v3.09h0a1.75,1.75,0,0,1,1.59-.93,1.42,1.42,0,0,1,1.19.49,2.18,2.18,0,0,1,.4,1.43v2.93Z" fill="#1d1d1b"/><path d="M147,26.17a2.67,2.67,0,0,0,.11.78,1.6,1.6,0,0,0,.32.59,1.32,1.32,0,0,0,.51.36,1.6,1.6,0,0,0,.67.13,2.42,2.42,0,0,0,1.51-.56v.58a2.7,2.7,0,0,1-1.64.49,2.21,2.21,0,0,1-.87-.17,1.76,1.76,0,0,1-.66-.48,2.24,2.24,0,0,1-.42-.78,3.41,3.41,0,0,1-.15-1.05,2.86,2.86,0,0,1,.16-1,2.49,2.49,0,0,1,.45-.78,2,2,0,0,1,.68-.52,1.9,1.9,0,0,1,.86-.19,1.86,1.86,0,0,1,.81.16,1.66,1.66,0,0,1,.59.46,1.87,1.87,0,0,1,.36.72,3.12,3.12,0,0,1,.13.95v.3Zm2.81-.52a1.83,1.83,0,0,0-.35-1.15,1.17,1.17,0,0,0-.94-.41,1.47,1.47,0,0,0-.56.11,1.25,1.25,0,0,0-.45.31,1.54,1.54,0,0,0-.32.49,2.14,2.14,0,0,0-.18.65Z" fill="#1d1d1b"/><path d="M153.9,24.3a.91.91,0,0,0-.54-.16.88.88,0,0,0-.41.09,1.11,1.11,0,0,0-.32.25,1.41,1.41,0,0,0-.23.35,1.77,1.77,0,0,0-.15.42,3.43,3.43,0,0,0-.09.44,3.1,3.1,0,0,0,0,.42v2.32h-.59V23.69h.59v1h0a2.17,2.17,0,0,1,.22-.46,1.42,1.42,0,0,1,.29-.35,1.31,1.31,0,0,1,.36-.21,1.16,1.16,0,0,1,.42-.08l.25,0a.65.65,0,0,1,.21.06Z" fill="#1d1d1b"/><path d="M56.26,17a9.58,9.58,0,0,1-4.48.94,7.31,7.31,0,0,1-5.56-2.19A8,8,0,0,1,44.13,10a8.39,8.39,0,0,1,2.35-6.19,8,8,0,0,1,5.94-2.35,9.92,9.92,0,0,1,3.84.65V4.71a6.84,6.84,0,0,0-3.56-1,5.57,5.57,0,0,0-4.2,1.66,6.08,6.08,0,0,0-1.61,4.42A5.77,5.77,0,0,0,48.4,14a5.22,5.22,0,0,0,3.94,1.57,7.1,7.1,0,0,0,3.92-1.07Z" fill="#c7d306"/><path d="M64,17.91a5.64,5.64,0,0,1-4.21-1.6,5.74,5.74,0,0,1-1.57-4.23A6,6,0,0,1,59.9,7.6,6,6,0,0,1,64.32,6a5.47,5.47,0,0,1,4.16,1.56A6.09,6.09,0,0,1,70,11.9a6,6,0,0,1-1.61,4.37A5.78,5.78,0,0,1,64,17.91ZM64.17,8a3,3,0,0,0-2.4,1.06A4.45,4.45,0,0,0,60.9,12a4.11,4.11,0,0,0,.89,2.82,3,3,0,0,0,2.38,1,2.86,2.86,0,0,0,2.34-1A4.49,4.49,0,0,0,67.32,12a4.57,4.57,0,0,0-.81-2.9A2.82,2.82,0,0,0,64.17,8Z" fill="#c7d306"/><path d="M75.19,17.64H72.6V.78h2.59Z" fill="#c7d306"/><path d="M81.14,17.64H78.55V.78h2.59Z" fill="#c7d306"/><path d="M93.24,17.64H90.73V15.86h0a3.77,3.77,0,0,1-3.46,2.05A3.69,3.69,0,0,1,84.6,17a3.22,3.22,0,0,1-.95-2.42q0-3.22,3.72-3.76l3.38-.47c0-1.63-.78-2.44-2.32-2.44a5.53,5.53,0,0,0-3.67,1.4V7.05A8,8,0,0,1,88.92,6q4.32,0,4.32,4.24Zm-2.49-5.59-2.39.33a3.9,3.9,0,0,0-1.68.54,1.59,1.59,0,0,0-.56,1.39,1.5,1.5,0,0,0,.52,1.18A2,2,0,0,0,88,16a2.55,2.55,0,0,0,2-.83A2.9,2.9,0,0,0,90.75,13Z" fill="#c7d306"/><path d="M99,16H99v1.64H96.38V.78H99V8.26H99A4.21,4.21,0,0,1,102.88,6a4.06,4.06,0,0,1,3.37,1.53,6.33,6.33,0,0,1,1.22,4.09,7.1,7.1,0,0,1-1.37,4.58,4.49,4.49,0,0,1-3.73,1.72A3.67,3.67,0,0,1,99,16Zm-.07-4.53v1.41a3,3,0,0,0,.8,2.11,2.8,2.8,0,0,0,4.27-.25,5.2,5.2,0,0,0,.82-3.11A4.13,4.13,0,0,0,104.06,9,2.49,2.49,0,0,0,102,8a2.79,2.79,0,0,0-2.22,1A3.63,3.63,0,0,0,98.94,11.47Z" fill="#c7d306"/><path d="M115.16,17.91a5.62,5.62,0,0,1-4.21-1.6,5.75,5.75,0,0,1-1.58-4.23A6,6,0,0,1,111,7.6,6,6,0,0,1,115.44,6a5.47,5.47,0,0,1,4.15,1.56,6.05,6.05,0,0,1,1.5,4.35,6,6,0,0,1-1.61,4.37A5.78,5.78,0,0,1,115.16,17.91ZM115.28,8a3,3,0,0,0-2.39,1.06A4.4,4.4,0,0,0,112,12a4.16,4.16,0,0,0,.89,2.82,3,3,0,0,0,2.38,1,2.83,2.83,0,0,0,2.34-1,4.43,4.43,0,0,0,.82-2.88,4.51,4.51,0,0,0-.82-2.9A2.79,2.79,0,0,0,115.28,8Z" fill="#c7d306"/><path d="M132.2,17.64h-2.5V15.86h0a3.76,3.76,0,0,1-3.46,2.05,3.66,3.66,0,0,1-2.62-.91,3.19,3.19,0,0,1-1-2.42q0-3.22,3.72-3.76l3.38-.47c0-1.63-.77-2.44-2.31-2.44a5.51,5.51,0,0,0-3.67,1.4V7.05A8,8,0,0,1,127.89,6q4.3,0,4.31,4.24Zm-2.49-5.59-2.39.33a3.94,3.94,0,0,0-1.68.54,1.59,1.59,0,0,0-.56,1.39,1.53,1.53,0,0,0,.52,1.18A2,2,0,0,0,127,16a2.58,2.58,0,0,0,2-.83,2.94,2.94,0,0,0,.77-2.08Z" fill="#c7d306"/><path d="M142,8.71a2.16,2.16,0,0,0-1.34-.37,2.29,2.29,0,0,0-1.91,1,4.57,4.57,0,0,0-.77,2.81v5.45h-2.58V6.25h2.58V8.6h0a3.92,3.92,0,0,1,1.16-1.87,2.65,2.65,0,0,1,1.76-.68,2.16,2.16,0,0,1,1.06.21Z" fill="#c7d306"/><path d="M154,17.64h-2.58V15.71h-.05a4.45,4.45,0,0,1-7.2.67,6.37,6.37,0,0,1-1.26-4.17,6.9,6.9,0,0,1,1.4-4.52A4.55,4.55,0,0,1,148,6a3.55,3.55,0,0,1,3.34,1.84h.05v-7H154Zm-2.55-5.2V11a2.89,2.89,0,0,0-.79-2.06,2.63,2.63,0,0,0-2-.85,2.7,2.7,0,0,0-2.27,1.08,4.77,4.77,0,0,0-.83,3,4.34,4.34,0,0,0,.79,2.75,2.59,2.59,0,0,0,2.14,1,2.67,2.67,0,0,0,2.15-1A3.66,3.66,0,0,0,151.4,12.44Z" fill="#c7d306"/></g></g></svg>